<svg width="42" height="42" viewBox="0 0 42 42" fill="none" xmlns="http://www.w3.org/2000/svg">
<g clip-path="url(#clip0_284_908)">
<circle cx="20.7435" cy="20.7435" r="19.7435" stroke="black" stroke-width="2"/>
<path d="M20.9958 10C15.4842 10 11 14.485 11 19.9967C11 25.5133 15.4842 30 20.9958 30C26.5125 30 31 25.5125 31 19.9967C31 14.485 26.5125 10 20.9958 10ZM15.9233 23.67C17.0679 23.3194 18.258 23.1402 19.455 23.1383C21.4667 23.1383 23.4525 23.6483 25.1983 24.6133C25.3025 24.67 25.3967 24.8567 25.44 25.09C25.4817 25.3233 25.465 25.5625 25.3967 25.6867C25.3645 25.7457 25.3209 25.7978 25.2684 25.8399C25.2159 25.882 25.1556 25.9132 25.0909 25.9318C25.0263 25.9504 24.9586 25.956 24.8918 25.9483C24.825 25.9405 24.7603 25.9196 24.7017 25.8867C23.4193 25.1832 22.0088 24.7444 20.5537 24.5964C19.0986 24.4484 17.6285 24.5942 16.2308 25.025C16.1667 25.0457 16.099 25.0535 16.0318 25.0479C15.9646 25.0422 15.8992 25.0232 15.8394 24.9921C15.7796 24.9609 15.7266 24.9181 15.6835 24.8663C15.6404 24.8144 15.6081 24.7545 15.5883 24.69C15.4992 24.3983 15.6833 23.7483 15.9233 23.67ZM15.4875 19.9867C16.7805 19.6354 18.1143 19.4575 19.4542 19.4575C21.8658 19.4575 24.26 20.0408 26.3792 21.1458C26.5283 21.2208 26.6375 21.3492 26.6875 21.5058C26.7128 21.5849 26.722 21.6683 26.7145 21.751C26.7071 21.8338 26.6832 21.9142 26.6442 21.9875C26.455 22.3575 26.2333 22.6067 26.0942 22.6067C25.9926 22.6062 25.8927 22.5817 25.8025 22.535C23.8435 21.5122 21.6649 20.982 19.455 20.99C18.2258 20.9875 17.0019 21.1515 15.8167 21.4775C15.7376 21.4991 15.6551 21.5049 15.5737 21.4947C15.4924 21.4844 15.4139 21.4582 15.3427 21.4175C15.2715 21.3769 15.209 21.3227 15.1588 21.2579C15.1086 21.1931 15.0716 21.1191 15.05 21.04C14.9567 20.6883 15.1708 20.0733 15.4875 19.9867V19.9867ZM15.375 17.5817C15.2812 17.6057 15.1836 17.611 15.0877 17.5971C14.9919 17.5833 14.8997 17.5506 14.8166 17.5009C14.7335 17.4512 14.661 17.3856 14.6034 17.3078C14.5457 17.23 14.5041 17.1415 14.4808 17.0475C14.3783 16.6325 14.6375 16.1508 15.0142 16.0558C16.4671 15.698 17.9578 15.5164 19.4542 15.515C22.3292 15.515 25.0842 16.1617 27.6408 17.4375C27.8165 17.5248 27.9503 17.6784 28.0128 17.8643C28.0753 18.0503 28.0614 18.2534 27.9742 18.4292C27.855 18.6692 27.5967 18.9275 27.3117 18.9275C27.1999 18.9271 27.0896 18.9023 26.9883 18.855C24.6505 17.6822 22.0697 17.0753 19.4542 17.0833C18.0917 17.0833 16.7192 17.2508 15.375 17.5817V17.5817Z" fill="black"/>
</g>
<defs>
<clipPath id="clip0_284_908">
<rect width="41.487" height="41.487" fill="white"/>
</clipPath>
</defs>
</svg>
