<?xml version="1.0" standalone="no"?>
<!DOCTYPE svg PUBLIC "-//W3C//DTD SVG 20010904//EN"
 "http://www.w3.org/TR/2001/REC-SVG-20010904/DTD/svg10.dtd">
<svg version="1.0" xmlns="http://www.w3.org/2000/svg"
 width="300.000000pt" height="300.000000pt" viewBox="0 0 300.000000 300.000000"
 preserveAspectRatio="xMidYMid meet">

<g transform="translate(0.000000,300.000000) scale(0.100000,-0.100000)"
fill="#000000" stroke="none">
<path d="M1285 2969 c-226 -35 -453 -126 -645 -260 -108 -75 -293 -266 -368
-378 -342 -512 -342 -1157 -1 -1672 83 -124 272 -313 398 -397 161 -108 347
-186 541 -228 121 -27 458 -27 580 -1 300 64 554 201 765 412 210 209 340 449
407 746 20 90 23 131 23 304 0 173 -3 214 -23 304 -67 297 -197 537 -407 746
-208 208 -459 345 -755 410 -88 20 -421 29 -515 14z m-584 -649 c10 -6 19 -17
19 -25 0 -56 198 -193 382 -266 122 -48 397 -99 535 -99 l56 0 -6 30 c-4 16
-9 60 -12 97 -4 37 -8 78 -11 90 -3 14 3 30 16 43 18 18 33 20 141 20 66 0
129 -5 140 -10 17 -10 19 -22 19 -140 l0 -130 61 0 c34 0 113 5 177 12 108 11
115 11 128 -7 20 -27 20 -228 0 -244 -7 -6 -80 -19 -162 -28 -82 -9 -150 -17
-152 -18 -1 -1 27 -121 63 -266 89 -353 90 -431 11 -517 -71 -79 -222 -94
-556 -57 -25 3 -173 12 -330 20 -157 8 -298 20 -313 27 -37 14 -53 49 -62 130
-12 111 26 146 138 128 121 -19 510 -51 625 -51 139 -1 187 13 220 62 33 46
27 114 -28 342 l-42 177 -67 0 c-215 0 -493 38 -652 90 -184 60 -403 187 -450
263 -31 49 -23 170 15 255 36 78 57 93 97 72z"/>
</g>
</svg>
