<svg width="42" height="42" viewBox="0 0 42 42" fill="none" xmlns="http://www.w3.org/2000/svg">
<g clip-path="url(#clip0_527_938)">
<circle cx="20.7435" cy="20.7435" r="19.7435" stroke="black" stroke-width="2"/>
<g clip-path="url(#clip1_527_938)">
<path d="M28.4709 13.1789C26.9795 12.4945 25.4058 12.006 23.789 11.7256C23.7744 11.7231 23.7593 11.7253 23.7459 11.7317C23.7325 11.7381 23.7215 11.7486 23.7142 11.7615C23.5116 12.1209 23.2873 12.591 23.1306 12.959C21.3878 12.6945 19.6151 12.6945 17.8722 12.959C17.6975 12.549 17.4997 12.1493 17.28 11.7615C17.2726 11.7487 17.2615 11.7384 17.2482 11.732C17.2349 11.7256 17.2199 11.7234 17.2052 11.7256C15.5881 12.0045 14.014 12.4932 12.5233 13.1789C12.5106 13.1838 12.4999 13.1929 12.4931 13.2048C9.51175 17.6596 8.69381 22.0052 9.09487 26.2961C9.09631 26.3162 9.10925 26.3364 9.12506 26.3493C10.8612 27.6353 12.803 28.6172 14.8679 29.253C14.8825 29.2576 14.8981 29.2575 14.9126 29.2526C14.9271 29.2477 14.9396 29.2383 14.9484 29.2257C15.3911 28.622 15.785 27.9852 16.1242 27.3153C16.1313 27.3015 16.1337 27.2858 16.1312 27.2705C16.1286 27.2552 16.1211 27.2412 16.1099 27.2305C16.1024 27.2235 16.0936 27.2181 16.084 27.2147C15.4647 26.9766 14.8648 26.6907 14.29 26.3594C14.2739 26.3503 14.262 26.3353 14.2566 26.3177C14.2513 26.3 14.2529 26.281 14.2612 26.2645C14.2661 26.2538 14.2735 26.2444 14.2828 26.2372C14.4036 26.1466 14.5243 26.0517 14.6393 25.9569C14.6495 25.9487 14.6617 25.9434 14.6746 25.9417C14.6875 25.9399 14.7006 25.9417 14.7126 25.9468C18.4774 27.666 22.5527 27.666 26.2716 25.9468C26.284 25.9414 26.2976 25.9395 26.311 25.9413C26.3245 25.9431 26.3371 25.9484 26.3477 25.9569C26.4627 26.0517 26.5835 26.1466 26.7042 26.2372C26.714 26.2443 26.7219 26.2538 26.7271 26.2647C26.7324 26.2756 26.7348 26.2877 26.7342 26.2998C26.7337 26.3119 26.7301 26.3237 26.7239 26.3341C26.7176 26.3445 26.7089 26.3532 26.6985 26.3594C26.125 26.6937 25.5244 26.9793 24.9031 27.2132C24.8932 27.2168 24.8842 27.2225 24.8767 27.23C24.8692 27.2374 24.8635 27.2464 24.8599 27.2564C24.8566 27.266 24.8553 27.2761 24.856 27.2863C24.8568 27.2964 24.8596 27.3063 24.8642 27.3153C25.2092 27.9837 25.6046 28.622 26.0387 29.2257C26.0475 29.2383 26.06 29.2477 26.0745 29.2526C26.0889 29.2575 26.1046 29.2576 26.1192 29.253C28.1875 28.6191 30.1325 27.6372 31.8706 26.3493C31.8793 26.3433 31.8866 26.3354 31.8918 26.3261C31.897 26.3169 31.9001 26.3067 31.9008 26.2961C32.3809 21.3353 31.0972 17.0257 28.4997 13.2062C28.4971 13.1999 28.4932 13.1942 28.4882 13.1895C28.4833 13.1848 28.4774 13.1812 28.4709 13.1789V13.1789ZM16.6863 23.6827C15.5521 23.6827 14.6192 22.642 14.6192 21.3655C14.6192 20.0875 15.5349 19.0468 16.6863 19.0468C17.8464 19.0468 18.7707 20.0962 18.7534 21.3655C18.7534 22.642 17.8377 23.6827 16.6863 23.6827ZM24.3281 23.6827C23.1953 23.6827 22.2609 22.642 22.2609 21.3655C22.2609 20.0875 23.1766 19.0468 24.3281 19.0468C25.4881 19.0468 26.4139 20.0962 26.3952 21.3655C26.3952 22.642 25.4881 23.6827 24.3281 23.6827Z" fill="black"/>
</g>
</g>
<defs>
<clipPath id="clip0_527_938">
<rect width="41.487" height="41.487" fill="white"/>
</clipPath>
<clipPath id="clip1_527_938">
<rect width="23" height="23" fill="white" transform="translate(9 9)"/>
</clipPath>
</defs>
</svg>
