<svg width="42" height="42" viewBox="0 0 42 42" fill="none" xmlns="http://www.w3.org/2000/svg">
<g clip-path="url(#clip0_284_898)">
<circle cx="21.2118" cy="20.7435" r="19.7435" stroke="black" stroke-width="2"/>
<path d="M26.777 11.6367H15.6463C14.707 11.6367 13.8062 12.0098 13.142 12.674C12.4779 13.3382 12.1047 14.239 12.1047 15.1783V26.3089C12.1047 26.774 12.1963 27.2346 12.3743 27.6642C12.5523 28.0939 12.8132 28.4844 13.142 28.8132C13.4709 29.1421 13.8613 29.403 14.291 29.5809C14.7207 29.7589 15.1812 29.8505 15.6463 29.8505H26.777C27.242 29.8505 27.7026 29.7589 28.1323 29.5809C28.5619 29.403 28.9524 29.1421 29.2812 28.8132C29.6101 28.4844 29.871 28.0939 30.0489 27.6642C30.2269 27.2346 30.3185 26.774 30.3185 26.3089V15.1783C30.3185 14.7132 30.2269 14.2527 30.0489 13.823C29.871 13.3933 29.6101 13.0029 29.2812 12.674C28.9524 12.3452 28.5619 12.0843 28.1323 11.9063C27.7026 11.7283 27.242 11.6367 26.777 11.6367V11.6367ZM27.7888 13.7364H28.1885V16.8226H25.1124V13.7364H27.7888ZM18.6162 18.8767C19.0633 18.2581 19.7167 17.8196 20.4586 17.6401C21.2005 17.4607 21.9821 17.5521 22.6625 17.8978C23.343 18.2436 23.8776 18.8211 24.1699 19.5262C24.4623 20.2312 24.4933 21.0175 24.2572 21.7434C24.0212 22.4692 23.5336 23.0869 22.8825 23.4851C22.2313 23.8833 21.4593 24.0359 20.7056 23.9153C19.9519 23.7947 19.2661 23.4089 18.7717 22.8274C18.2773 22.2459 18.0068 21.5069 18.009 20.7436C18.0106 20.073 18.223 19.42 18.6162 18.8767ZM28.5477 26.3089C28.5504 26.5384 28.5077 26.766 28.4221 26.9789C28.3364 27.1917 28.2096 27.3855 28.0488 27.5491C27.888 27.7128 27.6964 27.843 27.4851 27.9323C27.2737 28.0216 27.0469 28.0683 26.8174 28.0696H15.6463C15.4169 28.073 15.1891 28.0309 14.976 27.9459C14.7629 27.8609 14.5687 27.7346 14.4046 27.5742C14.2405 27.4139 14.1097 27.2227 14.0198 27.0116C13.9299 26.8005 13.8826 26.5738 13.8806 26.3444V18.8767H16.5975C16.2913 19.6325 16.1754 20.4519 16.2601 21.2629C16.3448 22.0739 16.6273 22.8517 17.083 23.528C17.5387 24.2042 18.1535 24.7582 18.8734 25.1412C19.5933 25.5242 20.3962 25.7245 21.2116 25.7245C22.0271 25.7245 22.83 25.5242 23.5499 25.1412C24.2698 24.7582 24.8846 24.2042 25.3403 23.528C25.7959 22.8517 26.0785 22.0739 26.1632 21.2629C26.2478 20.4519 26.132 19.6325 25.8258 18.8767H28.5477V26.3089Z" fill="black"/>
</g>
<defs>
<clipPath id="clip0_284_898">
<rect width="41.487" height="41.487" fill="white" transform="translate(0.468262)"/>
</clipPath>
</defs>
</svg>
